<svg xmlns="http://www.w3.org/2000/svg" viewBox="0 0 64 64">
  <defs>
    <style>
      .cls-1{fill:#73dce0;}.cls-2{fill:none;stroke:#524a4d;stroke-miterlimit:10;stroke-width:2px;}.cls-3{fill:#a8a0a2;}.cls-4{fill:#fff;}.cls-5{fill:#ff7652;}.cls-6{fill:#736b6d;}
    </style>
  </defs>
  <path class="cls-1" d="M41,38c8,0,10-9,16-9h4V19H57c-6,0-8-9-16-9H6a6,6,0,0,0-6,6V32a6,6,0,0,0,6,6Z"/>
  <line class="cls-2" x1="11" y1="38" x2="11" y2="48"/>
  <line class="cls-2" x1="41" y1="38" x2="41" y2="48"/>
  <line class="cls-2" x1="41" y1="43" x2="11" y2="43"/>
  <rect class="cls-3" x="4" y="48" width="44" height="6"/>
  <path class="cls-4" d="M11,32a4,4,0,0,0,4-4H45a4,4,0,0,1-4,4Z"/>
  <path class="cls-5" d="M37,20H15a4,4,0,0,0-8,0v8a4,4,0,0,0,8,0H37Z"/>
  <polygon class="cls-6" points="64 28 56 28 52 26 52 22 56 20 64 20 64 28"/>
  <path class="cls-4" d="M11,16H41a4,4,0,0,1,4,4H15A4,4,0,0,0,11,16Z"/>
  <line class="cls-2" x1="27" y1="24" x2="25" y2="24"/>
  <line class="cls-2" x1="23" y1="24" x2="21" y2="24"/>
  <line class="cls-2" x1="19" y1="24" x2="17" y2="24"/>
  <line class="cls-2" x1="18" y1="53" y2="53"/>
  <line class="cls-2" x1="64" y1="53" x2="20" y2="53"/>
  <line class="cls-2" x1="57" y1="19" x2="57" y2="29"/>
  <line class="cls-2" x1="61" y1="19" x2="61" y2="29"/>
</svg>
